<?xml version="1.0" encoding="utf-8"?>
<!-- Generator: Adobe Illustrator 22.1.0, SVG Export Plug-In . SVG Version: 6.00 Build 0)  -->
<svg version="1.1" id="レイヤー_1" xmlns="http://www.w3.org/2000/svg" xmlns:xlink="http://www.w3.org/1999/xlink" x="0px"
	 y="0px" width="158px" height="48px" viewBox="0 0 158 48" style="enable-background:new 0 0 158 48;" xml:space="preserve">
<style type="text/css">
	.st0{fill-rule:evenodd;clip-rule:evenodd;fill:#333333;}
	.st1{fill:#333333;}
	.st2{fill:#004697;}
	.st3{fill:#007A60;}
</style>
<g>
	<g>
		<path class="st0" d="M82,47.1c-0.3,0.4-1,0.9-2,0.9c-1.5,0-2.5-0.6-2.5-2.2c0-1.8,1.9-2.3,3.2-2.3c0.4,0,0.8,0,1.2,0
			c0-1-0.4-1.5-1.5-1.5c-0.7,0-1.4,0.3-1.9,0.7l-0.2,0.1l0-1.3l0,0c0.6-0.4,1.4-0.6,2.2-0.6c2,0,2.8,1,2.8,2.8v2.7
			c0,0.7,0,1.1,0.1,1.3l0,0.1H82V47.1 M81.8,44.7c-0.2,0-0.5,0-0.7,0c-0.3,0-0.9,0-1.4,0.2c-0.5,0.2-0.8,0.5-0.8,1
			c0,0.6,0.6,1,1.1,1c1.2,0,1.7-0.7,1.7-1.6V44.7z"/>
		<path class="st0" d="M76.6,40.4l-0.2-0.1c-0.6-0.3-1.2-0.5-1.8-0.5c-2,0-3.4,1.5-3.4,3.4c0,2.1,1.5,3.4,3.3,3.4
			c0.6,0,1.5-0.2,1.9-0.4l0.2-0.1v1.5l0,0C75.9,47.9,75,48,74.5,48c-2.9,0-4.9-1.9-4.9-4.8c0-2.8,2.1-4.7,4.9-4.7
			c0.7,0,1.4,0.1,2.1,0.4l0.1,0V40.4"/>
		<path class="st0" d="M88.4,42c-1.2,0-1.9,1.2-1.9,2.4c0,1.1,0.6,2.4,1.9,2.4c1.2,0,1.8-1.4,1.7-2.4C90.1,43.2,89.6,42,88.4,42
			 M86.5,47v0.8h-1.4v-9.4h1.4v3.3c0.4-0.5,1.1-0.9,2.1-0.9c2,0,2.9,1.6,2.9,3.4c0,1.8-0.9,3.7-2.9,3.7C87.6,48,86.9,47.5,86.5,47z"
			/>
		<rect x="93.1" y="38.4" class="st1" width="1.6" height="1.6"/>
		<rect x="93.2" y="41" class="st1" width="1.4" height="6.8"/>
		<path class="st0" d="M98,41.9c0.4-0.6,1.3-1,2.1-1c1.8,0,2.6,1.1,2.6,2.9v4h-1.4v-3.5c0-1.5-0.3-2.2-1.3-2.3c-1.3,0-1.9,1-1.9,2.6
			v3.2h-1.4V41H98V41.9"/>
		<path class="st0" d="M108.8,43.7c0-0.9-0.6-1.7-1.6-1.7c-1.1,0-1.6,0.8-1.7,1.7H108.8 M109.8,47.5L109.8,47.5
			c-0.3,0.1-0.5,0.2-0.9,0.3c-0.3,0.1-0.7,0.2-1.3,0.2c-2.4,0-3.5-1.5-3.5-3.7c0-2,1.3-3.4,3.2-3.4c2.3,0,3,1.7,3,3.8v0.1h-4.7
			c0,1.2,1,2,2.1,2c0.8,0,1.7-0.4,2-0.6l0.2-0.1V47.5z"/>
		<path class="st0" d="M115.5,42.2h-1.8v3.5c0,0.7,0.4,1.1,0.9,1.1c0.4,0,0.6-0.1,0.8-0.2l0.1-0.1v1.3l-0.1,0
			c-0.3,0.1-0.7,0.2-1.1,0.2c-1.3,0-2.1-0.6-2.1-2v-3.8h-1.5V41h1.5v-1.5l1.4-0.4v2h1.8V42.2"/>
		<path class="st0" d="M124.5,38.4c2.8,0,4.4,2,4.4,4.8c0,2.8-1.6,4.8-4.4,4.8c-2.8,0-4.4-2-4.4-4.8C120,40.5,121.7,38.4,124.5,38.4
			 M124.5,46.7c2,0,2.9-1.7,2.9-3.4c0-1.8-1-3.5-2.9-3.4c-1.9,0-2.9,1.6-2.9,3.4C121.6,45,122.5,46.7,124.5,46.7z"/>
		<path class="st0" d="M134.4,38.3v1.2l-0.1,0c-0.1,0-0.3-0.1-0.6-0.1c-1,0-1.1,0.6-1.1,1.5l0.1,0.1h1.8v1.2h-1.8v5.6h-1.4v-5.6
			h-1.6V41h1.6v-0.2c0-1.6,0.4-2.6,2.3-2.6C133.8,38.3,134.1,38.3,134.4,38.3L134.4,38.3"/>
		<rect x="141.3" y="38.4" class="st1" width="1.6" height="1.6"/>
		<rect x="141.4" y="41" class="st1" width="1.4" height="6.8"/>
		<path class="st0" d="M149.3,42.4l-0.2-0.1c-0.5-0.2-0.9-0.3-1.3-0.3c-1.3,0-2,1.2-2,2.4c0,1.2,0.6,2.4,2.1,2.4
			c0.4,0,0.9-0.1,1.3-0.4l0.2-0.1v1.4c-0.5,0.2-1.1,0.3-1.6,0.3c-2.1,0-3.5-1.6-3.5-3.6c0-2.1,1.4-3.6,3.5-3.6
			c0.5,0,1.2,0.1,1.5,0.3l0.1,0V42.4"/>
		<path class="st0" d="M154.9,43.7c0-0.9-0.6-1.7-1.6-1.7c-1.1,0-1.6,0.8-1.7,1.7H154.9 M155.9,47.5L155.9,47.5
			c-0.3,0.1-0.5,0.2-0.9,0.3c-0.3,0.1-0.7,0.2-1.3,0.2c-2.4,0-3.5-1.5-3.5-3.7c0-2,1.3-3.4,3.2-3.4c2.3,0,3,1.7,3,3.8v0.1h-4.7
			c0,1.2,1,2,2.1,2c0.8,0,1.7-0.4,2-0.6l0.2-0.1V47.5z"/>
		<path class="st0" d="M139.9,38.3v1.2l-0.1,0c-0.1,0-0.3-0.1-0.6-0.1c-1,0-1.1,0.6-1.1,1.5l0.1,0.1h1.8v1.2h-1.8v5.6h-1.4v-5.6
			h-1.6V41h1.6v-0.2c0-1.6,0.4-2.6,2.3-2.6C139.4,38.3,139.6,38.3,139.9,38.3L139.9,38.3"/>
	</g>
	<g>
		<path class="st2" d="M0.2,44.2C0.1,44.2,0,44.1,0,44c3.3-8.8,8.2-16.1,17.2-23.1c0.2-0.1,0.4-0.1,0.4,0.2c0,9.5-0.5,13.4-1,14.5
			c-0.6,1.2-0.8,1.2-2,0.7c-1.2-0.4-2.6-1.2-6.1-3.3c-1.2-0.7-1.5-0.4-0.3,0.4c3.4,2.3,4.6,3.4,5.5,4.3c0.9,0.9,1.2,2,0,2.4
			C9.5,41.8,5,43.2,0.2,44.2 M57.4,0.3c-9.8,15.2-21.3,27.9-35.8,36c-1.2,0.7-1.7,0.5-2.3-0.7c-0.6-1.2-1-5.4-1-15
			c0-0.4,0.2-0.7,0.4-0.9C27.4,13.3,39.4,7.1,57.2,0C57.4-0.1,57.5,0.1,57.4,0.3z"/>
		<path class="st3" d="M17.4,48c-3.9,0.1-7.6-0.1-11.2-0.4c-0.2,0-0.2-0.2-0.1-0.3c2.7-2.7,5.6-4.7,8.7-6.1c1-0.5,1.6-0.2,2.1,0.5
			c0.4,0.7,0.8,2.2,0.8,6.1C17.6,47.8,17.5,48,17.4,48 M21.5,40.1c-0.4-0.5-0.4-1,0.6-1.2c4.6-1.1,9.8-1.1,15.3-1.1
			c2.5,0,10.7,0.5,13.1,0.8c0.2,0,0.3,0.2,0.1,0.3c-11.7,6.3-22.4,8.7-32.1,9.1c-0.2,0-0.3-0.1-0.3-0.2c0-3.7,0.5-5.2,0.8-6
			c0.3-0.9,0.8-0.8,1.5-0.6c0.9,0.3,2.6,1.2,5.3,2.9c0.7,0.4,0.9,0.1,0.2-0.3C23.3,41.8,22.1,40.8,21.5,40.1z"/>
	</g>
	<g>
		<path class="st0" d="M141.9,16.4v15.4h-2.2v-12c-0.8,1.1-1.5,1.9-2.2,2.5l-1.7-1.6c3-2.7,4.5-5.5,6-9.5h2.4
			C143.9,12.4,143.1,14.2,141.9,16.4"/>
		<path class="st0" d="M144.2,5.8v2.7h-10.6v11.2c0,4.7-0.7,8.2-2.1,11.1l2.2,1c1.8-3.8,2.1-8.1,2.1-12.3v-8.8h22.1V8.5h-11.4V5.8
			H144.2"/>
		<path class="st0" d="M155.3,11.3h-2.3v4h-9.3v2.2h9.3v11.3c0,0.9-0.3,0.9-0.8,0.9h-2.9v2.3h3.6c1.5,0,2.4-0.8,2.4-2.4v-12h2.7
			v-2.2h-2.7V11.3"/>
		<path class="st0" d="M149.8,26.9c-0.3-1.6-1.1-4.9-2-7.1h-2.2c1,2.5,1.8,5.5,2,7.1H149.8"/>
		<path class="st0" d="M79.5,8.5H68.9v23.3h2.3V10.7h8.2c0,2-1,5.3-2,7.1c-1.5,2.5-3.3,4-5.9,5.5l1.3,2.2c4.5-2.5,6.6-6.4,7.9-9.6
			c0.7,1.8,2,5.4,7.5,9.5l1.5-2c-0.8-0.5-2-1.3-3.5-2.8c-2.9-2.9-4.4-6.6-4.4-9.9h8.1v18.1c0,0.7-0.4,0.7-0.8,0.7h-3.3v2.3h4
			c2.2,0,2.3-1.6,2.3-2.4V8.5H81.8v-3h-2.3V8.5"/>
		<path class="st0" d="M114.3,7.2h10.8v22.6c0,1.2-0.6,2.1-2.1,2.1h-2.4v-2.2h1.5c0.8,0,0.8-0.3,0.8-0.7V16.2h-8.5V7.2 M116.5,14.5
			h6.4v-2h-6.4V14.5z M116.5,10.9h6.4V8.9h-6.4V10.9z"/>
		<path class="st0" d="M107.4,25.2h11.4v6.2h-11.4V25.2z M109.4,29.7h7.3v-2.9h-7.3V29.7z"/>
		<path class="st0" d="M101,7.2h10.8v9.1h-8.5v15.6H101V7.2 M103.3,14.5h6.4v-2h-6.4V14.5z M103.3,10.9h6.4V8.9h-6.4V10.9z"/>
		<path class="st1" d="M121.7,26.5c-3.5-0.9-6.2-1.7-8.5-2.9c-2.5,1.3-5.3,2.2-8.8,2.8v-1.9c2.8-0.5,5-1.1,6.8-1.9
			c-1-0.6-1.9-1.3-2.8-2.2c-1.2,0.8-2.4,1.3-3.3,1.7l-0.8-1.7c2-0.8,3.9-1.9,5.5-3.5h2.6c-0.2,0.3-0.5,0.6-0.7,0.8h7.5v1.6
			c-1.3,1.3-2.7,2.3-4.1,3.2c1.9,0.8,4.1,1.5,6.6,1.9V26.5 M116.4,19.3h-6.5c0.9,0.8,2,1.5,3.2,2.3
			C114.3,20.9,115.3,20.2,116.4,19.3z"/>
	</g>
</g>
</svg>
